HIERARCHY
ROOT Pelvis
{
	OFFSET 0.000000 0.941512 0.000000
	CHANNELS 6 Xposition Yposition Zposition Zrotation Yrotation Xrotation 
	JOINT Pelvis_L_Hip
	{
		OFFSET 0.000000 0.000000 0.000000
		CHANNELS 3 Zrotation Yrotation Xrotation
		JOINT L_Hip
		{
			OFFSET 0.062321 -0.080322 -0.016990
			CHANNELS 3 Zrotation Yrotation Xrotation
			JOINT L_Knee
			{
				OFFSET 0.093051 -0.381305 -0.029784
				CHANNELS 3 Zrotation Yrotation Xrotation
				JOINT L_Ankle
				{
					OFFSET -0.010371 -0.431000 -0.033614
					CHANNELS 3 Zrotation Yrotation Xrotation
					End Site #name: L_Foot
					{
						OFFSET 0.069299 -0.038670 0.119418
					}
				}
			}
		}
	}
	JOINT Pelvis_R_Hip
	{
		OFFSET 0.000000 0.000000 0.000000
		CHANNELS 3 Zrotation Yrotation Xrotation
		JOINT R_Hip
		{
			OFFSET -0.055334 -0.094904 -0.002373
			CHANNELS 3 Zrotation Yrotation Xrotation
			JOINT R_Knee
			{
				OFFSET -0.064207 -0.384370 -0.019592
				CHANNELS 3 Zrotation Yrotation Xrotation
				JOINT R_Ankle
				{
					OFFSET 0.025418 -0.419734 -0.065953
					CHANNELS 3 Zrotation Yrotation Xrotation
					End Site #name: R_Foot
					{
						OFFSET -0.057233 -0.039888 0.132134
					}
				}
			}
		}
	}
	JOINT Pelvis_Spine1
	{
		OFFSET 0.000000 0.000000 0.000000
		CHANNELS 3 Zrotation Yrotation Xrotation
		JOINT Spine1
		{
			OFFSET -0.005562 0.124093 -0.043360
			CHANNELS 3 Zrotation Yrotation Xrotation
			JOINT Spine2
			{
				OFFSET 0.012244 0.139499 0.029894
				CHANNELS 3 Zrotation Yrotation Xrotation
				JOINT Spine3
				{
					OFFSET -0.002556 0.056561 0.009225
					CHANNELS 3 Zrotation Yrotation Xrotation
					JOINT Spine3_Neck
					{
						OFFSET 0.000000 0.000000 0.000000
						CHANNELS 3 Zrotation Yrotation Xrotation
						JOINT Neck
						{
							OFFSET -0.005205 0.217920 -0.024551
							CHANNELS 3 Zrotation Yrotation Xrotation
							End Site #name: Head
							{
								OFFSET 0.002365 0.091850 0.046637
							}
						}
					}
					JOINT Spine3_L_Collar
					{
						OFFSET 0.000000 0.000000 0.000000
						CHANNELS 3 Zrotation Yrotation Xrotation
						JOINT L_Collar
						{
							OFFSET 0.072225 0.116603 -0.009480
							CHANNELS 3 Zrotation Yrotation Xrotation
							JOINT L_Shoulder
							{
								OFFSET 0.115937 -0.058643 -0.021018
								CHANNELS 3 Zrotation Yrotation Xrotation
								JOINT L_Elbow
								{
									OFFSET 0.021994 -0.254722 -0.024492
									CHANNELS 3 Zrotation Yrotation Xrotation
									End Site #name: L_Wrist
									{
										OFFSET 0.048810 -0.240214 0.103329
									}
								}
							}
						}
					}
					JOINT Spine3_R_Collar
					{
						OFFSET 0.000000 0.000000 0.000000
						CHANNELS 3 Zrotation Yrotation Xrotation
						JOINT R_Collar
						{
							OFFSET -0.073372 0.120704 -0.024611
							CHANNELS 3 Zrotation Yrotation Xrotation
							JOINT R_Shoulder
							{
								OFFSET -0.108089 -0.054969 -0.020504
								CHANNELS 3 Zrotation Yrotation Xrotation
								JOINT R_Elbow
								{
									OFFSET -0.033684 -0.260739 0.009889
									CHANNELS 3 Zrotation Yrotation Xrotation
									End Site #name: R_Wrist
									{
										OFFSET -0.067980 -0.232763 0.118463
									}
								}
							}
						}
					}
				}
			}
		}
	}
}
MOTION
Frames: 6
Frame Time: 0.041667
-0.260687 0.939217 -0.330441 -9.049419 -7.808238 21.570512 0.000000 0.000000 0.000000 -8.902741 -8.337486 -31.488298 28.731364 4.322773 -20.475597 129.460142 12.439085 170.879654 0.000000 0.000000 0.000000 28.830991 -9.746998 20.170649 -14.950375 -3.929425 -40.561093 -3.657642 -38.216968 151.294957 0.000000 0.000000 0.000000 28.308235 6.510619 -33.317840 -10.842527 3.726370 12.065737 1.139324 0.250437 17.750249 0.000000 0.000000 0.000000 -2.882576 3.062073 -64.252686 0.000000 0.000000 0.000000 -157.737027 0.819958 -40.138026 115.516052 22.609076 -30.418222 39.827035 8.186532 44.376275 0.000000 0.000000 0.000000 -176.002206 31.867746 41.951270 -143.296919 12.650047 11.524807 -5.511537 -10.710912 39.560423 
-0.256061 0.939653 -0.377565 -10.055109 -9.409886 19.846985 0.000000 0.000000 0.000000 -7.362172 -8.200428 -32.699969 29.194613 4.143556 -19.381383 120.932001 15.488010 175.922819 0.000000 0.000000 0.000000 25.173862 -9.657242 22.772038 -17.649981 -4.958627 -45.760281 -11.949803 -37.363727 165.350735 0.000000 0.000000 0.000000 28.943364 6.654437 -32.850880 -11.564422 3.962352 12.041237 1.441771 0.034357 18.010740 0.000000 0.000000 0.000000 -2.885261 3.142454 -62.014945 0.000000 0.000000 0.000000 -157.521841 0.825363 -41.550209 110.187654 25.157854 -34.313883 42.360841 9.926229 35.744848 0.000000 0.000000 0.000000 -177.337693 32.091684 43.652913 -133.348328 31.556633 24.503728 2.532986 -11.058789 44.117371 
-0.253295 0.936237 -0.424304 -10.909928 -11.576160 16.663720 0.000000 0.000000 0.000000 -6.472463 -7.556501 -31.259635 30.083081 4.637031 -19.923955 115.764279 18.186569 179.087407 0.000000 0.000000 0.000000 22.226968 -8.274466 21.407599 -22.260457 -4.341985 -38.135012 8.130072 -38.514548 162.353539 0.000000 0.000000 0.000000 29.420987 6.173183 -30.897958 -12.901790 4.457935 12.289595 1.258047 -1.604690 17.938732 0.000000 0.000000 0.000000 -1.249479 3.710656 -61.056999 0.000000 0.000000 0.000000 -156.935256 -6.186659 -37.022871 119.903718 17.920223 -25.866422 37.415947 9.227862 37.697691 0.000000 0.000000 0.000000 175.716599 26.263030 31.773667 -139.220716 14.939262 13.608211 -3.291929 -11.817505 46.065469 
-0.250887 0.926966 -0.478812 -12.105815 -13.522635 13.673521 0.000000 0.000000 0.000000 -5.077332 -7.106604 -30.949390 31.330764 4.839429 -19.495820 110.529880 21.593795 -178.238081 0.000000 0.000000 0.000000 20.932476 -6.607107 17.362637 -25.511516 -2.287127 -27.086623 115.214347 -13.669009 132.770643 0.000000 0.000000 0.000000 29.699877 5.312378 -28.301553 -13.803130 4.658880 11.723091 0.331685 -4.158066 18.668710 0.000000 0.000000 0.000000 1.289293 4.605936 -61.068983 0.000000 0.000000 0.000000 -156.142760 -16.515787 -29.742739 130.026404 4.241365 -15.914028 29.871030 8.097920 44.936485 0.000000 0.000000 0.000000 166.412903 10.110899 6.279929 -121.457266 -39.791278 -23.878597 -22.273942 -12.091210 31.368298 
-0.250423 0.913798 -0.534405 -12.379092 -14.785741 9.993638 0.000000 0.000000 0.000000 -5.553739 -6.801555 -29.091377 33.042669 6.013257 -21.438168 108.138010 24.883836 -178.778026 0.000000 0.000000 0.000000 20.627383 -6.638330 18.016642 -25.432960 -1.891772 -25.423008 102.667128 -15.979301 131.203593 0.000000 0.000000 0.000000 27.471726 4.510055 -26.787122 -14.111068 4.973581 12.609129 0.268689 -6.241785 19.478672 0.000000 0.000000 0.000000 2.916216 5.371877 -61.591074 0.000000 0.000000 0.000000 -153.170452 -29.412122 -18.021152 133.797253 -22.959429 -0.765076 11.433793 8.854893 55.752011 0.000000 0.000000 0.000000 161.908921 -6.910749 -15.034558 -69.565130 -44.226245 -69.208715 -22.953562 -11.710250 15.708934 
-0.246781 0.915427 -0.588752 -9.481856 -8.069389 9.061104 0.000000 0.000000 0.000000 -11.936545 -8.240223 -28.224275 30.761970 7.758675 -29.571146 92.609846 38.960371 169.660261 0.000000 0.000000 0.000000 23.055690 -7.627102 17.906984 -28.524618 -4.248299 -31.566373 91.800044 -19.433254 126.209510 0.000000 0.000000 0.000000 19.118147 4.866378 -32.063229 -11.655874 4.313599 14.085949 1.888178 -3.799011 19.402501 0.000000 0.000000 0.000000 -2.767765 3.239204 -60.816630 0.000000 0.000000 0.000000 -150.648287 -25.039180 -12.688731 137.508453 -20.588951 -2.206133 3.697218 9.137556 52.194102 0.000000 0.000000 0.000000 161.783838 -2.867250 -20.480560 -82.494162 -43.815735 -56.640802 -20.945454 -11.439913 23.004738 
